<mxfile host="app.diagrams.net" modified="2022-02-24T01:39:27.936Z" agent="5.0 (Macintosh; Intel Mac OS X 10_15_2) AppleWebKit/537.36 (KHTML, like Gecko) Chrome/98.0.4758.102 Safari/537.36" etag="QczTn7lCkjHnA4cBfUiH" version="16.6.3" type="github">
  <diagram id="C5RBs43oDa-KdzZeNtuy" name="Page-1">
    <mxGraphModel dx="1113" dy="655" grid="1" gridSize="10" guides="1" tooltips="1" connect="1" arrows="1" fold="1" page="1" pageScale="1" pageWidth="827" pageHeight="1169" math="0" shadow="0">
      <root>
        <mxCell id="WIyWlLk6GJQsqaUBKTNV-0" />
        <mxCell id="WIyWlLk6GJQsqaUBKTNV-1" parent="WIyWlLk6GJQsqaUBKTNV-0" />
        <mxCell id="BObkXbD4jv-BoE3sb8Zd-26" style="edgeStyle=orthogonalEdgeStyle;rounded=0;orthogonalLoop=1;jettySize=auto;html=1;exitX=0.875;exitY=0.5;exitDx=0;exitDy=0;exitPerimeter=0;entryX=0;entryY=0.5;entryDx=0;entryDy=0;" edge="1" parent="WIyWlLk6GJQsqaUBKTNV-1" source="BObkXbD4jv-BoE3sb8Zd-0" target="BObkXbD4jv-BoE3sb8Zd-8">
          <mxGeometry relative="1" as="geometry" />
        </mxCell>
        <mxCell id="BObkXbD4jv-BoE3sb8Zd-0" value="" style="ellipse;shape=cloud;whiteSpace=wrap;html=1;" vertex="1" parent="WIyWlLk6GJQsqaUBKTNV-1">
          <mxGeometry x="160" y="360" width="120" height="80" as="geometry" />
        </mxCell>
        <mxCell id="BObkXbD4jv-BoE3sb8Zd-6" style="edgeStyle=orthogonalEdgeStyle;rounded=0;orthogonalLoop=1;jettySize=auto;html=1;exitX=0.5;exitY=0;exitDx=0;exitDy=0;entryX=0.417;entryY=0.975;entryDx=0;entryDy=0;entryPerimeter=0;" edge="1" parent="WIyWlLk6GJQsqaUBKTNV-1" source="BObkXbD4jv-BoE3sb8Zd-1" target="BObkXbD4jv-BoE3sb8Zd-0">
          <mxGeometry relative="1" as="geometry" />
        </mxCell>
        <mxCell id="BObkXbD4jv-BoE3sb8Zd-1" value="" style="shape=trapezoid;perimeter=trapezoidPerimeter;whiteSpace=wrap;html=1;fixedSize=1;" vertex="1" parent="WIyWlLk6GJQsqaUBKTNV-1">
          <mxGeometry x="150" y="490" width="120" height="60" as="geometry" />
        </mxCell>
        <mxCell id="BObkXbD4jv-BoE3sb8Zd-5" value="" style="rounded=1;whiteSpace=wrap;html=1;" vertex="1" parent="WIyWlLk6GJQsqaUBKTNV-1">
          <mxGeometry x="150" y="550" width="120" height="60" as="geometry" />
        </mxCell>
        <mxCell id="BObkXbD4jv-BoE3sb8Zd-22" value="&lt;br&gt;" style="edgeStyle=orthogonalEdgeStyle;rounded=0;orthogonalLoop=1;jettySize=auto;html=1;exitX=0.25;exitY=1;exitDx=0;exitDy=0;" edge="1" parent="WIyWlLk6GJQsqaUBKTNV-1" source="BObkXbD4jv-BoE3sb8Zd-8">
          <mxGeometry relative="1" as="geometry">
            <mxPoint x="390" y="539.9999999999998" as="targetPoint" />
            <Array as="points">
              <mxPoint x="390" y="443" />
            </Array>
          </mxGeometry>
        </mxCell>
        <mxCell id="BObkXbD4jv-BoE3sb8Zd-25" style="edgeStyle=orthogonalEdgeStyle;rounded=0;orthogonalLoop=1;jettySize=auto;html=1;exitX=1;exitY=0.5;exitDx=0;exitDy=0;entryX=0;entryY=0.5;entryDx=0;entryDy=0;" edge="1" parent="WIyWlLk6GJQsqaUBKTNV-1" source="BObkXbD4jv-BoE3sb8Zd-8" target="BObkXbD4jv-BoE3sb8Zd-9">
          <mxGeometry relative="1" as="geometry" />
        </mxCell>
        <mxCell id="BObkXbD4jv-BoE3sb8Zd-8" value="Firewall" style="swimlane;startSize=85;" vertex="1" parent="WIyWlLk6GJQsqaUBKTNV-1">
          <mxGeometry x="360" y="357.5" width="90" height="85" as="geometry" />
        </mxCell>
        <mxCell id="BObkXbD4jv-BoE3sb8Zd-24" style="edgeStyle=orthogonalEdgeStyle;rounded=0;orthogonalLoop=1;jettySize=auto;html=1;exitX=0.75;exitY=1;exitDx=0;exitDy=0;entryX=0.5;entryY=0;entryDx=0;entryDy=0;entryPerimeter=0;" edge="1" parent="WIyWlLk6GJQsqaUBKTNV-1" source="BObkXbD4jv-BoE3sb8Zd-9" target="BObkXbD4jv-BoE3sb8Zd-14">
          <mxGeometry relative="1" as="geometry" />
        </mxCell>
        <mxCell id="BObkXbD4jv-BoE3sb8Zd-45" style="edgeStyle=orthogonalEdgeStyle;rounded=0;orthogonalLoop=1;jettySize=auto;html=1;exitX=0.25;exitY=1;exitDx=0;exitDy=0;entryX=0.36;entryY=0.007;entryDx=0;entryDy=0;entryPerimeter=0;" edge="1" parent="WIyWlLk6GJQsqaUBKTNV-1" source="BObkXbD4jv-BoE3sb8Zd-9" target="BObkXbD4jv-BoE3sb8Zd-10">
          <mxGeometry relative="1" as="geometry" />
        </mxCell>
        <mxCell id="BObkXbD4jv-BoE3sb8Zd-9" value="" style="rounded=1;whiteSpace=wrap;html=1;" vertex="1" parent="WIyWlLk6GJQsqaUBKTNV-1">
          <mxGeometry x="550" y="383.75" width="120" height="32.5" as="geometry" />
        </mxCell>
        <mxCell id="BObkXbD4jv-BoE3sb8Zd-49" value="" style="edgeStyle=orthogonalEdgeStyle;rounded=0;orthogonalLoop=1;jettySize=auto;html=1;" edge="1" parent="WIyWlLk6GJQsqaUBKTNV-1" source="BObkXbD4jv-BoE3sb8Zd-10">
          <mxGeometry relative="1" as="geometry">
            <mxPoint x="570" y="630" as="targetPoint" />
          </mxGeometry>
        </mxCell>
        <mxCell id="BObkXbD4jv-BoE3sb8Zd-10" value="Web 1" style="shape=cylinder3;whiteSpace=wrap;html=1;boundedLbl=1;backgroundOutline=1;size=15;" vertex="1" parent="WIyWlLk6GJQsqaUBKTNV-1">
          <mxGeometry x="540" y="510" width="60" height="80" as="geometry" />
        </mxCell>
        <mxCell id="BObkXbD4jv-BoE3sb8Zd-13" value="Workstation" style="text;html=1;align=center;verticalAlign=middle;resizable=0;points=[];autosize=1;strokeColor=none;fillColor=none;" vertex="1" parent="WIyWlLk6GJQsqaUBKTNV-1">
          <mxGeometry x="160" y="640" width="80" height="20" as="geometry" />
        </mxCell>
        <mxCell id="BObkXbD4jv-BoE3sb8Zd-14" value="Web 2" style="shape=cylinder3;whiteSpace=wrap;html=1;boundedLbl=1;backgroundOutline=1;size=15;" vertex="1" parent="WIyWlLk6GJQsqaUBKTNV-1">
          <mxGeometry x="650" y="510" width="60" height="80" as="geometry" />
        </mxCell>
        <mxCell id="BObkXbD4jv-BoE3sb8Zd-34" style="edgeStyle=orthogonalEdgeStyle;rounded=0;orthogonalLoop=1;jettySize=auto;html=1;exitX=0.5;exitY=1;exitDx=0;exitDy=0;entryX=0.5;entryY=1;entryDx=0;entryDy=0;entryPerimeter=0;" edge="1" parent="WIyWlLk6GJQsqaUBKTNV-1" source="BObkXbD4jv-BoE3sb8Zd-15" target="BObkXbD4jv-BoE3sb8Zd-14">
          <mxGeometry relative="1" as="geometry">
            <Array as="points">
              <mxPoint x="387" y="630" />
              <mxPoint x="680" y="630" />
            </Array>
          </mxGeometry>
        </mxCell>
        <mxCell id="BObkXbD4jv-BoE3sb8Zd-15" value="Jumpbox VM&#xa;Ansible" style="swimlane;fontStyle=0;childLayout=stackLayout;horizontal=1;startSize=30;horizontalStack=0;resizeParent=1;resizeParentMax=0;resizeLast=0;collapsible=1;marginBottom=0;" vertex="1" parent="WIyWlLk6GJQsqaUBKTNV-1">
          <mxGeometry x="350" y="535" width="90" height="50" as="geometry" />
        </mxCell>
        <mxCell id="BObkXbD4jv-BoE3sb8Zd-59" value="40.77.99.127" style="text;html=1;align=center;verticalAlign=middle;resizable=0;points=[];autosize=1;strokeColor=none;fillColor=none;" vertex="1" parent="BObkXbD4jv-BoE3sb8Zd-15">
          <mxGeometry y="30" width="90" height="20" as="geometry" />
        </mxCell>
        <mxCell id="BObkXbD4jv-BoE3sb8Zd-31" value="Azure Load Balancer" style="text;html=1;align=center;verticalAlign=middle;resizable=0;points=[];autosize=1;strokeColor=none;fillColor=none;" vertex="1" parent="WIyWlLk6GJQsqaUBKTNV-1">
          <mxGeometry x="545" y="357.5" width="130" height="20" as="geometry" />
        </mxCell>
        <mxCell id="BObkXbD4jv-BoE3sb8Zd-32" value="HTTP (p80)" style="text;html=1;align=center;verticalAlign=middle;resizable=0;points=[];autosize=1;strokeColor=none;fillColor=none;" vertex="1" parent="WIyWlLk6GJQsqaUBKTNV-1">
          <mxGeometry x="470" y="383.75" width="80" height="20" as="geometry" />
        </mxCell>
        <mxCell id="BObkXbD4jv-BoE3sb8Zd-33" value="SSH&lt;br&gt;HTTP" style="text;html=1;align=center;verticalAlign=middle;resizable=0;points=[];autosize=1;strokeColor=none;fillColor=none;" vertex="1" parent="WIyWlLk6GJQsqaUBKTNV-1">
          <mxGeometry x="215" y="437.5" width="50" height="30" as="geometry" />
        </mxCell>
        <mxCell id="BObkXbD4jv-BoE3sb8Zd-46" value="internet" style="text;html=1;align=center;verticalAlign=middle;resizable=0;points=[];autosize=1;strokeColor=none;fillColor=none;" vertex="1" parent="WIyWlLk6GJQsqaUBKTNV-1">
          <mxGeometry x="190" y="340" width="60" height="20" as="geometry" />
        </mxCell>
        <mxCell id="BObkXbD4jv-BoE3sb8Zd-50" value="10.0.0.6" style="text;html=1;align=center;verticalAlign=middle;resizable=0;points=[];autosize=1;strokeColor=none;fillColor=none;" vertex="1" parent="WIyWlLk6GJQsqaUBKTNV-1">
          <mxGeometry x="650" y="565" width="60" height="20" as="geometry" />
        </mxCell>
        <mxCell id="BObkXbD4jv-BoE3sb8Zd-51" value="10.0.0.4" style="text;html=1;align=center;verticalAlign=middle;resizable=0;points=[];autosize=1;strokeColor=none;fillColor=none;" vertex="1" parent="WIyWlLk6GJQsqaUBKTNV-1">
          <mxGeometry x="535" y="565" width="60" height="20" as="geometry" />
        </mxCell>
        <mxCell id="BObkXbD4jv-BoE3sb8Zd-52" value="SSH" style="text;html=1;align=center;verticalAlign=middle;resizable=0;points=[];autosize=1;strokeColor=none;fillColor=none;" vertex="1" parent="WIyWlLk6GJQsqaUBKTNV-1">
          <mxGeometry x="390" y="467.5" width="40" height="20" as="geometry" />
        </mxCell>
        <mxCell id="BObkXbD4jv-BoE3sb8Zd-53" value="SSH" style="text;html=1;align=center;verticalAlign=middle;resizable=0;points=[];autosize=1;strokeColor=none;fillColor=none;" vertex="1" parent="WIyWlLk6GJQsqaUBKTNV-1">
          <mxGeometry x="440" y="600" width="40" height="20" as="geometry" />
        </mxCell>
        <mxCell id="BObkXbD4jv-BoE3sb8Zd-54" value="DVWA" style="text;html=1;align=center;verticalAlign=middle;resizable=0;points=[];autosize=1;strokeColor=none;fillColor=none;" vertex="1" parent="WIyWlLk6GJQsqaUBKTNV-1">
          <mxGeometry x="595" y="540" width="50" height="20" as="geometry" />
        </mxCell>
        <mxCell id="BObkXbD4jv-BoE3sb8Zd-55" value="Containers" style="text;html=1;align=center;verticalAlign=middle;resizable=0;points=[];autosize=1;strokeColor=none;fillColor=none;" vertex="1" parent="WIyWlLk6GJQsqaUBKTNV-1">
          <mxGeometry x="585" y="600" width="70" height="20" as="geometry" />
        </mxCell>
        <mxCell id="BObkXbD4jv-BoE3sb8Zd-56" value="" style="swimlane;startSize=0;" vertex="1" parent="WIyWlLk6GJQsqaUBKTNV-1">
          <mxGeometry x="520" y="460" width="200" height="200" as="geometry" />
        </mxCell>
        <mxCell id="BObkXbD4jv-BoE3sb8Zd-57" value="Load Balancer Bac kend Pool" style="text;html=1;align=center;verticalAlign=middle;resizable=0;points=[];autosize=1;strokeColor=none;fillColor=none;" vertex="1" parent="BObkXbD4jv-BoE3sb8Zd-56">
          <mxGeometry x="15" y="180" width="170" height="20" as="geometry" />
        </mxCell>
        <mxCell id="BObkXbD4jv-BoE3sb8Zd-61" value="10.1.0.4" style="text;html=1;align=center;verticalAlign=middle;resizable=0;points=[];autosize=1;strokeColor=none;fillColor=none;" vertex="1" parent="WIyWlLk6GJQsqaUBKTNV-1">
          <mxGeometry x="353" y="580" width="60" height="20" as="geometry" />
        </mxCell>
        <mxCell id="BObkXbD4jv-BoE3sb8Zd-62" value="Azure Seurity Group" style="text;html=1;align=center;verticalAlign=middle;resizable=0;points=[];autosize=1;strokeColor=none;fillColor=none;" vertex="1" parent="WIyWlLk6GJQsqaUBKTNV-1">
          <mxGeometry x="345" y="330" width="120" height="20" as="geometry" />
        </mxCell>
        <mxCell id="BObkXbD4jv-BoE3sb8Zd-63" value="" style="swimlane;startSize=0;" vertex="1" parent="WIyWlLk6GJQsqaUBKTNV-1">
          <mxGeometry x="330" y="260" width="405" height="490" as="geometry" />
        </mxCell>
        <mxCell id="BObkXbD4jv-BoE3sb8Zd-65" value="Azure Resource Group" style="text;html=1;align=center;verticalAlign=middle;resizable=0;points=[];autosize=1;strokeColor=none;fillColor=none;" vertex="1" parent="WIyWlLk6GJQsqaUBKTNV-1">
          <mxGeometry x="450" y="190" width="140" height="20" as="geometry" />
        </mxCell>
        <mxCell id="BObkXbD4jv-BoE3sb8Zd-66" value="" style="swimlane;startSize=0;" vertex="1" parent="WIyWlLk6GJQsqaUBKTNV-1">
          <mxGeometry x="300" y="220" width="460" height="580" as="geometry" />
        </mxCell>
        <mxCell id="BObkXbD4jv-BoE3sb8Zd-70" value="Azure Vitural Network10.0.0.0/16" style="text;html=1;align=center;verticalAlign=middle;resizable=0;points=[];autosize=1;strokeColor=none;fillColor=none;" vertex="1" parent="BObkXbD4jv-BoE3sb8Zd-66">
          <mxGeometry x="135" y="10" width="190" height="20" as="geometry" />
        </mxCell>
        <mxCell id="BObkXbD4jv-BoE3sb8Zd-71" value="Azure Vitural Subnet 10.0.0.0/24" style="text;html=1;align=center;verticalAlign=middle;resizable=0;points=[];autosize=1;strokeColor=none;fillColor=none;" vertex="1" parent="BObkXbD4jv-BoE3sb8Zd-66">
          <mxGeometry x="140" y="50" width="190" height="20" as="geometry" />
        </mxCell>
      </root>
    </mxGraphModel>
  </diagram>
</mxfile>
